<svg xmlns="http://www.w3.org/2000/svg" viewBox="0 0 856.42 218.12"><defs><style>.cls-1{fill:#fff;}</style></defs><g id="Layer_2" data-name="Layer 2"><g id="Layer_1-2" data-name="Layer 1"><path class="cls-1" d="M119.3,108.59C119.3,75.74,143,48.24,179,48.24s59.66,27.5,59.66,60.35S215,169.41,179,169.41,119.3,141.57,119.3,108.59Zm89.71,0c0-19.11-8.5-35.77-30.06-35.77s-30.06,16.66-30.06,35.77S157.51,145,179,145,209,127.7,209,108.59Z"/><path class="cls-1" d="M251,50.68h27.73V70.26a33.13,33.13,0,0,1,31.23-22c7.69,0,15.72,2.68,21.32,8.39l-12.94,23.3a22.71,22.71,0,0,0-12.7-4c-13.28,0-27.14,12.35-27.14,41.94v49.17H251Z"/><path class="cls-1" d="M445.77,74.45H424.45V50.68H446V35.07C446,12.47,463.6,0,483.18,0a51.76,51.76,0,0,1,21.08,4.78L494.94,28.2a18.62,18.62,0,0,0-9.08-2.92c-5.71,0-10.72,3.62-10.72,12.7v12.7h27.14V74.45H475.14v92.63H445.77Z"/><path class="cls-1" d="M499.58,108.59c0-32.85,23.66-60.35,59.66-60.35s59.66,27.5,59.66,60.35-23.65,60.82-59.66,60.82S499.58,141.57,499.58,108.59Zm89.72,0c0-19.11-8.5-35.77-30.06-35.77s-30.06,16.66-30.06,35.77S537.8,145,559.24,145,589.3,127.7,589.3,108.59Z"/><path class="cls-1" d="M630.54,143.9V2.45H659V136.09c0,5.48,3.61,7.81,9.32,7.81a60.42,60.42,0,0,0,7.81-.7v23.88a121.44,121.44,0,0,1-21.21,2.33C641.49,169.41,630.54,164.4,630.54,143.9Z"/><path class="cls-1" d="M691.34,2.45h29.59V28.66H691.34Zm.7,48.23h28.19v116.4H692Z"/><path class="cls-1" d="M737.11,108.59c0-32.85,23.65-60.35,59.66-60.35s59.65,27.5,59.65,60.35-23.65,60.82-59.65,60.82S737.11,141.57,737.11,108.59Zm89.72,0c0-19.11-8.51-35.77-30.06-35.77S766.7,89.48,766.7,108.59,775.33,145,796.77,145,826.83,127.7,826.83,108.59Z"/><path class="cls-1" d="M355.93,134.93V74.45H337.18V50.68H356.4V21.79L384.13,1.51V50.68h29.36V74.45H384.13v55.47c0,11.18,5.71,14.44,13.17,14.44,5.94,0,12.35-2.33,16.19-4.19v25.75a67.29,67.29,0,0,1-21,3.49C369.57,169.41,355.93,156.13,355.93,134.93Z"/><path class="cls-1" d="M0,50.68H28.9V62.34c8.15-10,20.27-14.1,32.74-14.1,32.62,0,50.33,28.19,50.33,60.59S94.26,169.41,62.1,169.41c-12.23,0-25.05-4-33.2-14v62.69H0Zm83.08,58.15c0-19.58-8.86-35.08-28.43-35.08s-28.32,15.5-28.32,35.08,8.86,34.37,28.32,34.37S83.08,128.4,83.08,108.83Z"/></g></g></svg>